<svg height="343.181348" viewBox="0 0 1013.247 1194.029" width="291.391128" xmlns="http://www.w3.org/2000/svg"><path d="m505.371 706.2c-1.054 1.241-2.215 2.534-3.3 3.891a25.73 25.73 0 0 1 -19.532 10.1 197.266 197.266 0 0 0 -36.663 5.751q-5.868 1.413-11.664 3.128a119.95 119.95 0 0 0 -22.786 9.3c-2.524 1.351-5.172 2.8-8.3 1.417-1.838-2.3-.65-4.323.887-6a105.381 105.381 0 0 1 8.862-8.9c4.877-4.2 10.031-8.074 15.039-12.121 6.559-5.3 14.047-9.108 21.3-13.292 2.783-1.606 5.709-2.964 8.542-4.485a17.147 17.147 0 0 0 2.017-1.517 14.654 14.654 0 0 0 -.913-2.77c-10.317-17.892-18.693-36.745-27.334-55.458q-10.326-22.382-20.083-45.024c-4.2-9.76-7.956-19.715-11.8-29.627-5.705-14.723-11.521-29.408-16.893-44.253-4.6-12.71-8.671-25.613-12.92-38.449-11.605-35.056-21.431-70.625-29.762-106.581-4.8-20.709-8.758-41.625-12.605-62.538-3.176-17.267-5.724-34.653-8.36-52.016-1.111-7.319-1.695-14.717-2.588-22.071-.718-5.914-1.643-11.805-2.289-17.727-.627-5.758-1.013-11.543-1.508-17.315-.523-6.093-1.13-12.18-1.545-18.28-.25-3.69-.243-7.4-.281-11.1a7.124 7.124 0 0 1 3.664-6.405 66.285 66.285 0 0 1 5.822-3.444q16.51-8.04 33.09-15.938c2.906-1.388 5.932-2.526 8.826-3.936 12.951-6.31 26.685-10.5 40.428-14.529a269.284 269.284 0 0 1 35.3-8.012c11.453-1.736 22.885-3.606 34.327-5.416a15.4 15.4 0 0 1 1.913-.262c12.061-.357 24.145-1.278 36.177-.831 7.381.274 14.789.388 22.167.847 4.965.309 9.9 1.177 14.839 1.832 6.535.867 13.1 1.582 19.592 2.7 13.8 2.37 27.507 5.158 41.08 8.729a314.784 314.784 0 0 1 47.883 16.614c11.33 5.034 22.441 10.574 33.543 16.1a71.8 71.8 0 0 1 9.293 6.062 9.29 9.29 0 0 1 3.919 7.872 184.656 184.656 0 0 1 -1.568 26.964c-.548 4.631-.905 9.284-1.335 13.928-.357 3.843-.63 7.7-1.052 11.531-.986 8.952-1.878 17.92-3.105 26.84-1.689 12.276-3.588 24.524-5.522 36.764-1.206 7.632-2.476 15.262-4.006 22.834-4.176 20.671-8.312 41.355-12.85 61.948-2.6 11.785-5.868 23.424-8.979 35.091-3.57 13.386-7.177 26.764-11 40.079-2.666 9.289-5.624 18.5-8.626 27.687-4.451 13.625-8.877 27.263-13.652 40.776-3.863 10.932-8.2 21.7-12.377 32.515-2.669 6.906-5.582 13.721-8.142 20.666-6.467 17.547-13.859 34.7-21.692 51.668-4.928 10.676-9.715 21.418-14.724 32.055-2.74 5.818-5.853 11.459-8.723 17.217q-4.953 9.933-9.755 19.941a22.41 22.41 0 0 0 -1 3.172c1.876 2.357 4.459 3.4 6.818 4.714 4.642 2.589 9.431 4.923 14 7.637a108.419 108.419 0 0 1 9.509 6.606c5.671 4.25 11.385 8.459 16.831 12.986a67.329 67.329 0 0 1 7.988 8.345c1.585 1.864 2.606 4.111.916 6.51-2.023.821-3.562-.283-5.159-.946-7.735-3.214-15.437-6.506-23.193-9.667a55.624 55.624 0 0 0 -7.342-2.377c-9.359-2.368-18.693-4.891-28.3-6.1-4.623-.581-9.273-.949-13.915-1.374-8.833-.809-16.469-4.076-22.448-10.809-1.152-1.305-2.147-2.857-4.981-3.247zm45.5-405.668c2.528 2.156 2 5.122 1.8 8-.253 3.523-.69 7.04-.791 10.567-.359 12.549.6 25.1-.783 37.664-.787 7.17-.146 14.449-1 21.692-.86 7.332-.817 14.771-1.174 22.162-.023.483-.077.964-.118 1.446-.568 6.726-1.231 13.446-1.681 20.18-.472 7.062-.689 14.14-1.116 21.205-.281 4.656-.711 9.3-1.119 13.951-.561 6.406-1.175 12.807-1.745 19.213-.4 4.485-.726 8.977-1.151 13.46-.516 5.442-1.12 10.875-1.651 16.316-.375 3.841-.757 7.683-1.017 11.533-.423 6.258-.6 12.536-1.149 18.781-.832 9.452-1.909 18.882-2.853 28.324-.4 4-.689 8.012-1.094 12.011q-.779 7.68-1.666 15.348-1.231 10.789-2.526 21.57c-.735 6.07-1.589 12.126-2.283 18.2-.53 4.634-.748 9.307-1.359 13.93-1.623 12.284-3.4 24.548-5.051 36.829a13.329 13.329 0 0 0 .464 3.359h5.592c.925-1.712 1.849-3.2 2.559-4.785 1.185-2.647 2.113-5.412 3.357-8.028 7.687-16.165 14.476-32.7 20.67-49.491 7.085-19.2 13.9-38.491 19.476-58.206 7.631-26.99 14.769-54.1 21.054-81.44 1.516-6.6 3-13.2 4.333-19.836 2.164-10.739 4.2-21.5 6.279-32.26 1.464-7.593 3.007-15.174 4.32-22.794q3.078-17.862 5.874-35.773c1.756-11.3 3.446-22.616 4.939-33.955 1.66-12.61 3.072-25.254 4.575-37.885.781-6.558 1.567-13.116 2.277-19.681.917-8.484 1.732-16.978 2.645-25.461.638-5.926 1.507-11.829 2.024-17.764 1.049-12.023 1.942-24.061 2.86-36.095.091-1.186.45-2.545-1.053-3.66a22.614 22.614 0 0 0 -1.855 2.923c-4.675 10.763-11.651 20-18.976 29.038a102.68 102.68 0 0 1 -19.539 18.614c-6.251 4.524-12.841 8.61-19.469 12.576a111.555 111.555 0 0 1 -35.94 13.673 149.173 149.173 0 0 1 -21.953 3.11c-12.048.543-24.151.6-36.087-1.888a107.855 107.855 0 0 1 -18.1-5.087 6.327 6.327 0 0 1 -4.215-4.892 27.069 27.069 0 0 1 -.577-5.746c.223-6.754.828-13.5.868-20.252a121.453 121.453 0 0 1 1.47-17.314c.214-1.433.342-2.879.518-4.318a209.462 209.462 0 0 1 6.18-31.751c.79-2.786 1.931-5.472 2.784-8.243a11.955 11.955 0 0 0 .037-3c-2.242 1.228-2.947 3.092-3.958 4.656a181.555 181.555 0 0 0 -14.034 25.9c-4.578 10.485-9.017 20.99-10.184 32.584-.53 5.267-1.759 10.468-2.776 15.678a12.529 12.529 0 0 1 -1.291 2.816c-4.679-.392-5.273-.733-7.494-3.951 0-6.586-.336-12.883.08-19.129.609-9.151 1.774-18.264 2.67-27.4a137.726 137.726 0 0 1 5.067-27.024c.613-2 1.116-4.041 1.553-6.088a21.281 21.281 0 0 0 .029-3.476c-1.715 2.027-2.88 3.319-3.951 4.685-7.416 9.462-12.639 20.178-17.744 30.973-3.607 7.625-6.56 15.4-7.17 23.921a5.055 5.055 0 0 1 -2.151 4.121c-2.091.651-3.451-.623-4.646-1.9-2.091-2.227-4.091-4.55-6-6.934a125.15 125.15 0 0 1 -16.592-26.58c-.136-.3-.547-.478-1.144-.975.585 6.535 1.237 12.6 1.644 18.673.474 7.06.732 14.134 1.089 21.2.041.8.092 1.61.186 2.409.541 4.631 1.127 9.258 1.64 13.893q1.431 12.948 2.8 25.905c.393 3.679.753 7.362 1.138 11.042.518 4.958.989 9.922 1.584 14.871.73 6.072 1.547 12.134 2.362 18.195q1.385 10.285 2.833 20.561c1 7.175 1.959 14.355 3.036 21.517 1.148 7.637 2.324 15.271 3.647 22.879q3.888 22.367 7.971 44.7c1.86 10.138 3.737 20.278 5.909 30.353 2.851 13.225 5.84 26.426 9.067 39.564 3.073 12.512 6.724 24.881 9.767 37.4 4.154 17.091 9.617 33.769 14.992 50.492a755.187 755.187 0 0 0 29.5 77.184c2.1 4.7 4.53 9.265 6.89 13.85 1.076 2.093 2.5 3.8 5.211 2.987 1.423-2.949 1.459-2.954 1.105-5.578-.517-3.833-1.158-7.649-1.629-11.486-1.16-9.432-2.264-18.871-3.37-28.309q-1.716-14.636-3.391-29.275-1.8-15.839-3.56-31.683c-.462-4.161-.907-8.325-1.283-12.494-.463-5.131-.821-10.272-1.268-15.4q-1.3-14.913-2.646-29.823c-.5-5.611-1.068-11.217-1.54-16.83q-1.194-14.195-2.3-28.394c-.444-5.617-.821-11.239-1.268-16.855-.331-4.172-.728-8.338-1.094-12.507-.492-5.612-1.024-11.222-1.461-16.838-.451-5.778-.679-11.575-1.237-17.342-.914-9.458-1.952-18.9-1.729-28.427.034-1.447-.094-2.9-.172-4.346q-.867-16.148-1.746-32.3c-.261-4.819-.571-9.636-.783-14.457q-.608-13.749-1.106-27.5c-.066-1.914-.048-3.9 1.487-5.388 3.084-.973 3.1-1.034 5.6-.417 3.907.965 7.737 2.466 11.7 2.947 8.294 1.009 16.641 1.884 24.985 2.091 7.212.178 14.449-.642 21.675-1.032.479-.026.951-.184 1.431-.223 6.288-.513 12.361-2.126 18.455-3.626 1.859-.462 3.72-1.104 5.751-.131z" fill="#36256e"/><path d="m871.759 581.209c.241-2.47-.96-3.622-2-4.838-3.867-4.53-7.783-9.02-11.616-13.58-5.9-7.027-11.7-14.144-17.651-21.136-3.648-4.29-7.524-8.386-11.227-12.631-3.808-4.366-7.661-8.7-11.248-13.248-2.806-3.555-2.728-5.693.464-8.943 3.376-3.437 7.062-6.587 10.76-9.687 6.17-5.173 12.481-10.179 18.686-15.31 2.728-2.257 5.35-4.643 8.007-6.984q11.233-9.9 22.439-19.823a8.626 8.626 0 0 0 1.245-1.835c-.775-2.279-2.628-3.074-4.281-3.976-8.623-4.709-17.253-9.409-25.939-14-13.958-7.375-27.976-14.634-41.934-22.007-2.845-1.5-5.553-3.268-8.293-4.965a8.354 8.354 0 0 1 -4.3-5.749c.584-1.4 1.275-3.351 2.189-5.193 5.877-11.838 11.851-23.628 17.7-35.481 4.986-10.109 9.821-20.293 14.766-30.423 2.12-4.343 4.379-8.618 6.507-12.957a23.4 23.4 0 0 0 1.036-3.325 14.593 14.593 0 0 0 -2.885-1c-6.87-.73-13.754-1.329-20.622-2.076-6.552-.711-13.088-1.565-19.634-2.331-7.184-.841-14.367-1.693-21.559-2.466-6.068-.652-12.146-1.215-18.223-1.786-4.161-.391-8.347-.581-12.485-1.135a72.7 72.7 0 0 1 -9.912-2.029c-4.07-1.141-5.35-3.4-4.586-7.686.706-3.965 1.8-7.868 2.355-11.85 1.4-10.05 2.566-20.132 3.883-30.194.732-5.59 1.718-11.15 2.34-16.751.96-8.64 1.677-17.306 2.557-25.954a88.647 88.647 0 0 1 1.267-9.085 20.632 20.632 0 0 1 1.752-4.2 5.129 5.129 0 0 1 5.694-.063 19.3 19.3 0 0 1 3.154 2.222c5.644 5.046 11.359 10.019 16.83 15.247 6.057 5.789 11.836 11.869 17.81 17.745a211.208 211.208 0 0 1 20.92 24.04c5.7 7.605 11.65 15.036 16.989 22.884 7.786 11.447 15.457 22.973 21.761 35.371a431.284 431.284 0 0 1 28.3 70.316 382.467 382.467 0 0 1 9.864 42.821c1.7 9.355 2.906 18.75 4.056 28.18.787 6.448.085 12.919.9 19.273 1.232 9.656.64 19.305.851 28.955.2 9.194-1.075 18.294-1.726 27.437-.929 13.057-3.418 25.861-5.969 38.64a349.342 349.342 0 0 1 -15.87 55.2 419.356 419.356 0 0 1 -22.238 49.855c-3.95 7.381-8.079 14.69-12.571 21.75-6.052 9.512-12.156 19.019-19.287 27.787-4.979 6.122-10.1 12.129-15.168 18.177-1.035 1.234-2.232 2.345-3.174 3.644-4.949 6.826-10.992 12.646-17.052 18.424-5.707 5.441-11.784 10.493-17.506 15.92a186.54 186.54 0 0 1 -16.949 14.361 489.026 489.026 0 0 1 -44.577 29.8c-2.91 1.707-5.927 3.289-9.342 3.625-3.527-1.925-4.012-2.693-3.393-6.439.709-4.292 1.727-8.534 2.386-12.833 1.366-8.916 2.518-17.865 3.885-26.781.782-5.1 1.722-10.17 2.758-15.22.93-4.533 2.269-5.606 6.967-5.649a43.189 43.189 0 0 1 6.714.591c9.548 1.421 19.077 2.975 28.632 4.35 4.929.71 9.9 1.15 14.846 1.709 2.235.252 4.474.478 6.706.751 1.6.2 3.189.419 4.815-.564a7.676 7.676 0 0 0 .4-1.787c-.06-5.477-.03-10.96-.3-16.429-.469-9.641-1.064-19.277-1.727-28.907-.5-7.227-1.224-14.437-1.767-21.661-.269-3.589 1.165-5.291 4.944-5.766 5.906-.743 11.833-1.314 17.748-1.992 2.87-.329 5.722-.925 8.6-1.071 7.4-.377 14.8-.745 22.2-.776 5.048-.022 9.9-1.128 14.833-1.838a5.533 5.533 0 0 0 1.564-.73c.914-1.853.09-3.361-.429-4.84-1.813-5.17-3.615-10.347-5.6-15.452q-7.092-18.246-14.355-36.425c-1.725-4.344-3.6-8.628-5.322-12.971-.644-1.625-1.056-3.341-1.41-4.487.513-2.818 2.182-3.743 4.027-4.5 13.128-5.35 26.234-10.757 39.391-16.035 8.369-3.357 16.821-6.511 25.219-9.8a16.126 16.126 0 0 0 2.41-1.425z" fill="#e73493"/><path d="m327.617 828.456c-1.691-.645-3.5-1.206-5.205-2.008a204.356 204.356 0 0 1 -26.223-15.436 366.885 366.885 0 0 1 -31.177-22.829q-5.559-4.637-10.927-9.5c-5.358-4.876-10.727-9.747-15.9-14.812a367.119 367.119 0 0 1 -31.65-35.8c-8.486-10.8-15.791-22.344-23.343-33.766-8.129-12.295-14.326-25.545-20.9-38.65-7.042-14.03-12.073-28.792-17.45-43.466a203.55 203.55 0 0 1 -6.678-23.69c-1.473-6.269-3.486-12.416-4.843-18.708a321.909 321.909 0 0 1 -5.475-35.315c-2.095-20.577-2.171-41.2-1.568-61.794a273.353 273.353 0 0 1 4.626-44.154c3.689-19.013 8-37.855 14.237-56.189 4.41-12.961 8.812-25.957 14.667-38.368 2.953-6.259 6.12-12.427 9.419-18.512 4.453-8.213 9.107-16.318 13.713-24.448 4.94-8.722 10.958-16.707 17.125-24.568 6.363-8.11 12.928-16.062 19.407-24.082.405-.5.8-1.016 1.241-1.482 7.446-7.81 14.707-15.808 22.408-23.358 6.661-6.531 13.762-12.621 20.8-18.755 2.279-1.986 4.876-3.763 8.036-3.2a4.193 4.193 0 0 1 2.376 3.669c.669 5.586 1.342 11.172 1.926 16.767.9 8.636 1.585 17.3 2.624 25.917 1.291 10.7 2.766 21.388 4.322 32.057.906 6.213 2.118 12.381 3.206 18.567.451 2.563.751 5.106-.489 7.615-2.02 2.48-5.041 2.756-7.852 3.105-11.178 1.387-22.352 3.031-33.58 3.729-13.847.861-27.5 3.007-41.2 4.879-7.014.959-14.105 1.344-21.154 2.06-1.545.157-3.288-.144-4.525 1.353-.786 1.887.423 3.387 1.161 4.931q4.688 9.8 9.491 19.549c5.829 11.851 11.633 23.714 17.557 35.516 3.4 6.767 7.015 13.423 10.518 20.137.6 1.142 1.136 2.315 1.667 3.49 1.911 4.227 1.011 7.73-3.468 10.041-10.164 5.242-20.214 10.7-30.31 16.076q-7.68 4.088-15.359 8.176-14.07 7.507-28.13 15.034c-2.231 1.2-4.569 2.295-5.871 4.313.364 2.282 2.044 2.877 3.21 3.917 6.01 5.362 12.337 10.41 17.974 16.137 6.47 6.575 13.744 12.158 20.673 18.165 4.015 3.481 8.263 6.693 12.34 10.105 1.726 1.444 3.327 3.049 4.907 4.657 4.82 4.9 5 6.735.782 11.954-3.34 4.135-6.909 8.084-10.355 12.135-6.369 7.485-12.668 15.031-19.1 22.463-5.164 5.97-10.51 11.781-15.711 17.72-2.119 2.42-4.1 4.963-6.072 7.509a12.543 12.543 0 0 0 -1.178 2.3c.431 2.483 2.33 2.9 3.919 3.53 4.94 1.965 9.931 3.8 14.887 5.723 13.82 5.363 27.656 10.685 41.43 16.162 3.558 1.414 7.209 2.836 9.8 5.529 1.412 2.657.639 4.957-.275 7.224-3.011 7.476-6.087 14.925-9.064 22.413q-8.487 21.341-16.881 42.717c-.459 1.168-.74 2.406-1.178 3.86a10.279 10.279 0 0 0 2.68 1.246c5.105.62 10.223 1.536 15.34 1.559a202.373 202.373 0 0 1 27.437 1.8c6.687.944 13.449 1.355 20.175 2.024.8.079 1.579.292 2.188.409a5.521 5.521 0 0 1 3.1 5.263 23.36 23.36 0 0 1 .014 2.9c-.524 5.765-1.09 11.526-1.639 17.289a21.461 21.461 0 0 0 -.192 2.407c.172 9.52-1.047 18.944-1.8 28.405-.409 5.124-.091 10.308-.037 15.464a9.923 9.923 0 0 0 .546 2.253c2.282 1.727 4.752 1.218 7.086.9 12.585-1.736 25.154-3.586 37.732-5.37 4.777-.677 9.555-1.37 14.352-1.878a53.227 53.227 0 0 1 6.076-.04c2.625 1.906 3.083 4.208 3.512 6.374q1.5 7.569 2.608 15.217c1.913 13.221 3.7 26.459 5.605 39.681.282 2.004.327 3.83-2.141 5.786z" fill="#e73493"/><path d="m350.061 834.559c-1.614-1.931-1.368-3.7-.956-5.441 3.925-16.6 9.515-32.51 19.827-46.342a123.577 123.577 0 0 1 12.092-14.43 105.744 105.744 0 0 1 18.535-14.646c2.194-1.354 4.372-2.733 6.552-4.11 10.881-6.871 22.926-10.891 35.13-14.622 11.918-3.643 24.3-4.825 36.424-7.332a7.263 7.263 0 0 1 7.763 2.7c2.539 3.326 5.136 6.636 7.344 10.179 3.579 5.74 6.851 11.672 10.279 17.508.792 1.348 1.253 3.037 3.12 3.424 1.734-.238 2.234-1.748 2.965-2.937 5.064-8.234 10.081-16.5 15.122-24.744a28.716 28.716 0 0 1 2.1-3.239 7.565 7.565 0 0 1 7.261-2.969c10.186 1.493 20.429 2.709 30.4 5.4 11.656 3.142 23.285 6.388 34.192 11.731a123.884 123.884 0 0 1 32.45 22.417 131.446 131.446 0 0 1 23.081 30.831c5.479 9.872 8.124 20.638 10.012 31.638.34 1.98.176 2.1-1.815 5.268a47.759 47.759 0 0 1 -4.843.059 13.324 13.324 0 0 1 -3.247-.918c-13.704-4.784-27.749-8.255-41.849-11.684-12.574-3.057-25.35-4.4-38.056-6.383-4.77-.744-9.527-1.631-14.323-2.134q-10.3-1.082-20.655-1.658c-5.132-.28-10.275.14-15.408-.836a41.113 41.113 0 0 0 -8.681-.229c-8.355.221-16.716-.5-25.072.895-4.077.683-8.363.051-12.549.182-3.367.105-6.726.459-10.088.709a19.3 19.3 0 0 1 -1.923.177c-9.717-.26-19.236 1.456-28.769 2.946-9.689 1.513-19.383 3.03-29.02 4.841-15.221 2.86-30.031 7.3-44.7 12.2q-2.749.919-5.554 1.67a11.255 11.255 0 0 1 -7.141-.121z" fill="#36256e"/><path d="m641.868 106.96c-2.136 1.414-4.023.777-5.868.253-6.659-1.891-13.287-3.889-19.959-5.73a330.807 330.807 0 0 0 -35.768-8.073c-2.382-.381-4.75-.874-7.1-1.423-8.33-1.946-16.809-2.7-25.311-3.361-6.4-.5-12.788-1.2-19.185-1.761-1.762-.153-3.54-.149-5.311-.152q-15.467-.027-30.934-.015c-4.823.006-9.667-.36-14.427.85a9.1 9.1 0 0 1 -2.407.136c-6.462-.145-12.827.814-19.189 1.739-9.386 1.365-18.8 2.6-28.127 4.3-7.115 1.3-14.073 3.447-21.175 4.835a229.666 229.666 0 0 0 -25.153 6.758c-1.687.533-3.4.992-5.134 1.357a4.281 4.281 0 0 1 -5.118-2.221c-.087-3.885 1.225-7.688 2.647-11.441 1.713-4.518 3.562-8.985 5.361-13.47a24.433 24.433 0 0 1 1.157-2.657c5.269-9.624 10.953-18.97 18.3-27.2 2.465-2.761 4.723-5.736 7.391-8.281a174.4 174.4 0 0 1 23.373-18.645 140.6 140.6 0 0 1 28.414-14.3 118.923 118.923 0 0 1 32.8-7.637c6.919-.564 13.81-.8 20.73-.823 13.349-.048 26.192 2.775 38.81 6.85a30 30 0 0 1 3.252 1.506c.066 1.055.131 2.115.22 3.544-8.916 4.886-17.885 9.586-25.541 16.381-7.466 6.626-14.69 13.41-19.952 22.27a11.125 11.125 0 0 0 1.759-.924c10.477-8.113 21.477-15.305 33.853-20.325a143.77 143.77 0 0 1 15.846-5.8c2.781-.764 5.4-2.111 8.151-3a20.641 20.641 0 0 1 5.151-.957 2.752 2.752 0 0 1 3.025 2.556c-.053 2-1.549 3.034-2.894 4.188-5.128 4.4-10.395 8.656-15.321 13.274-4.687 4.394-9.023 9.165-13.483 13.8a13.984 13.984 0 0 0 -1.28 2.514c1.853-1.137 2.832-1.607 3.661-2.265 11.368-9.01 24.493-14.795 37.668-20.48.884-.382 1.857-.562 2.735-.956 4.155-1.867 7.847-.928 11.261 1.783a28.4 28.4 0 0 1 2.581 2.181c12.3 12.441 23.154 25.926 30.786 41.83a189.359 189.359 0 0 1 8.316 19.023c1.673 4.758 1.958 6.433 1.389 9.969z" fill="#36256e"/><path d="m134.825 1093.737c.94-1.628 2.606-1.7 4.211-1.7 9.185-.032 18.37-.016 27.556-.011a9.915 9.915 0 0 1 6.934 3 41.539 41.539 0 0 1 4.781 5.422c7.912 10.779 15.718 21.636 23.63 32.414a34.626 34.626 0 0 0 6.72 7c-.446-7.649-1.149-15.294-1.267-22.948s-.581-15.392.493-23.092c8.845-3.094 17.37-1.508 25.1-1.724 2.871 1.429 3.618 3.336 3.569 5.55-.107 4.822-.317 9.642-.518 14.461-.081 1.928-.337 3.851-.357 5.779-.047 4.512.113 9.029-.024 13.537-.131 4.334-.55 8.659-.8 12.99q-.167 2.894-.167 5.8c-.015 11.121.013 22.242-.026 33.363-.007 2.068-.254 4.135-.412 6.525-1.531.7-2.916 1.822-4.361 1.9a69.84 69.84 0 0 1 -11.072-.174c-4.374-.448-7.67-2.866-10.389-6.371-7.01-9.038-14.245-17.9-21.3-26.907-3.972-5.072-7.733-10.309-11.646-15.428-.941-1.23-1.563-2.89-3.77-3.215a12.856 12.856 0 0 0 -.938 2.485c-.978 6.035-2.02 12.065-2.781 18.129-1.161 9.259-2.108 18.545-3.164 27.818a7.066 7.066 0 0 1 -.4 1.317 6.287 6.287 0 0 1 -5.532 2.552c-6.446.04-12.895.155-19.336-.021-4.48-.123-6.172-2.408-4.931-6.72 5.183-18 7.472-36.621 11.746-54.814.7-2.981 1.285-5.994 2.126-8.935a9.546 9.546 0 0 0 -1.638-8.685c-1.614-2.208-3.441-4.26-5.059-6.466-2.092-2.853-4.124-5.755-6.069-8.711-.779-1.181-1.516-2.51-.909-4.12z" fill="#e73493"/><path d="m250.343 1094.219a7.72 7.72 0 0 1 5.969-2.218c13.216 0 26.449-.39 39.643.151a90.19 90.19 0 0 1 28.316 5.661c13.764 5.213 21.669 15.6 25.9 29.251.348 6.547 2.37 13 .852 19.658-.747 3.278-.6 6.806-1.635 9.964-3.981 12.115-11.324 21.542-22.837 27.526-8.435 4.384-17.335 6.378-26.808 7.264-12.73 1.191-25.43.533-38.14.766a36.124 36.124 0 0 1 -7.138-.949 5.078 5.078 0 0 1 -4.217-4.7 45.443 45.443 0 0 1 -.345-6.263c-.025-22.084 0-44.168-.04-66.252-.011-5.144-.331-10.286-.32-15.429a21.681 21.681 0 0 1 .8-4.43zm29.458 22.262a36.4 36.4 0 0 0 -.558 4.273q-.046 21.465 0 42.93c0 1.755-.054 3.584 1.807 5.067a7.646 7.646 0 0 0 2.008.483c4.982.005 10 .32 14.938-.186 18.949-1.939 25.877-19.69 22.283-33.365-2.828-10.758-10.258-17.011-21.384-18.983a79.674 79.674 0 0 0 -14.877-.815 35.141 35.141 0 0 0 -4.218.596z" fill="#e73493"/><path d="m737.606 1139.87a56.333 56.333 0 0 1 -8 30.276c-7.491 12.936-19.364 19.987-33.752 22.8-14.306 2.8-27.795.076-40.48-7-6.653-3.712-11.651-9.119-15.69-15.413a46.5 46.5 0 0 1 -7.683-24.6c-.218-13.162 2.328-25.533 10.707-36.307a45.333 45.333 0 0 1 16.009-12.9c5.777-2.862 11.774-5.27 18.218-6.2 21.2-3.066 38.771 3.147 51.828 20.561a27.542 27.542 0 0 1 3.989 7.136c2.632 7.411 5.485 14.833 4.854 21.647zm-31.35 1.974h.054c0-2.091-.091-4.187.015-6.272.582-11.382-13.648-24.348-25.047-19.743a14.949 14.949 0 0 1 -2.351.512c-8.023 1.8-12.873 6.932-15.1 14.654a40.571 40.571 0 0 0 -.215 22.369c2.121 7.742 10.052 16.58 19.373 16.079a7.4 7.4 0 0 1 1.437.153 16.594 16.594 0 0 0 14.9-5 23.762 23.762 0 0 0 6.895-15.516c.195-2.4.039-4.824.039-7.236z" fill="#e73493"/><path d="m510.737 1189.007a5.262 5.262 0 0 1 -5.186 3.17c-6.279.072-12.561.109-18.836-.054a20.266 20.266 0 0 1 -4.743-1.207c-4.481-4.008-4.042-10.211-7.566-14.031-2.129-1.361-4.224-1-6.306-.826-3.358.276-6.716.681-10.079.745-6.117.115-12.238 0-18.357.018-6.86.019-7.461.536-9.749 6.9-.857 2.382-2.109 4.622-3.129 6.815-7.893 2.992-15.7 1.309-23.332 1.716-1.916.1-3.9.084-5.453-1.46-.965-1.615-.173-3.082.465-4.553q13.554-31.241 27.115-62.478c1.345-3.1 2.656-6.214 4.068-9.283a8.187 8.187 0 0 0 .13-6.556c-1.054-2.871-2.061-5.761-2.991-8.674-.59-1.848-1.04-3.753.032-5.522 1.174-1.527 2.793-1.691 4.416-1.693q19.323-.018 38.646.028a16.908 16.908 0 0 1 2.381.408 31.771 31.771 0 0 1 2.686 4.073c1.1 2.319 1.9 4.783 2.86 7.175q8.5 21.31 17.03 42.612c4.561 11.354 9.2 22.675 13.75 34.035 1.124 2.813 2.495 5.608 2.148 8.642zm-46.237-38.138c-.032-5.9-5.86-22.61-9.871-28.336a10.143 10.143 0 0 0 -1.348 1.89c-3.184 7.894-6.348 15.8-9.433 23.731a11.305 11.305 0 0 0 -.311 3.059c5.229 1.179 17.407.979 20.963-.344z" fill="#e73493"/><path d="m907.4 1137.856c1.24 1.087 2.435 2.119 3.613 3.171 7.725 6.9 10.981 15.217 8.39 25.557-3.5 13.958-13.03 21.461-26.441 24.471a92.819 92.819 0 0 1 -51.839-3.115 6.017 6.017 0 0 1 -.988-.627 10.238 10.238 0 0 1 -1.852-7.119c.209-3.695.384-7.391.576-11.086.1-1.92-.018-3.9 1.963-5.876a9.426 9.426 0 0 1 3.2-.152 49.865 49.865 0 0 1 8.214 2.75 26.388 26.388 0 0 0 11.182 2.6 28.1 28.1 0 0 1 5.261.575c5.224 1.006 10.3-.039 15.264-1.324 4.245-1.1 6.6-7.732 4.447-11.618a4.7 4.7 0 0 0 -4.464-2.381c-3.375.033-6.748.282-10.123.373-5.95.161-11.9.315-17.853.362a11.63 11.63 0 0 1 -3.009-.75c-2.44-5.422-1.747-16.277 1.255-21.213a3.865 3.865 0 0 1 1.254-.514c6.426-.244 12.856-.4 19.28-.682a44.367 44.367 0 0 0 7.142-.805c2.725-.573 4.4-2.608 5.467-5.055 1.152-2.646.206-5.327-2.482-7.09a16.92 16.92 0 0 0 -8.734-2.433c-6.985-.317-13.79 1.011-20.547 2.488-4.24.926-8.39 2.264-12.573 3.447-2.2.621-4.376 1.195-6.44-.164-1.371-1.272-1.431-2.9-1.539-4.51-.248-3.689 1.24-17.659 2.292-20.449a27.63 27.63 0 0 1 4.133-1.592c7.055-1.6 14.137-3.081 21.211-4.6a9.271 9.271 0 0 1 1.9-.316c8.84 0 17.715-.843 26.488.951a48.622 48.622 0 0 1 20.892 9.536 17.221 17.221 0 0 1 6.392 12.56c.743 8.72-1.527 16.288-8.876 21.748a9.6 9.6 0 0 0 -1.4 1.316 7.784 7.784 0 0 0 -.656 1.566z" fill="#e73493"/><path d="m544.221 1122.786c-1.539-1.64-1.909-3.7-2.129-5.8-.6-5.669.31-11.251 1.084-16.832.354-2.55 2.154-3.859 4.47-4.539 4.631-1.362 9.213-2.968 13.922-3.978a87.819 87.819 0 0 1 33.577-.515 43.282 43.282 0 0 1 18.432 8.105c7.06 5.244 10.327 12.406 10.881 21.143.727 11.485-3.221 21.058-10.624 29.622a71.7 71.7 0 0 1 -15.941 13.913c-1.154.731-2.61 1.242-3.026 3.014 3.69 1.26 7.072-.548 10.539-.614 3.513-.068 7-.925 10.522-1.273 3.479-.343 6.85-1.926 10.337-1.079a6.793 6.793 0 0 1 2.92 5.952c.058 5.638.144 11.28-.02 16.914-.114 3.881-1.5 5.11-5.336 5.4-1.122.084-2.254.065-3.381.065q-33.106 0-66.212-.015c-2.892 0-5.863.227-8.548-2.584-1.387-4.556-1.171-9.66-.217-14.732.433-2.3 2.224-3.866 4.068-5.235q13.185-9.789 26.373-19.575a100.554 100.554 0 0 0 13.328-11.875 17.3 17.3 0 0 0 4.73-10.35 8.036 8.036 0 0 0 -3.223-7.637 15.869 15.869 0 0 0 -9.306-3.486c-8.54-.4-16.605 1.727-24.654 4.087-2.163.634-4.291 1.385-6.447 2.044a8.246 8.246 0 0 1 -6.119-.14z" fill="#e73493"/><path d="m743.88 1122.868a25.405 25.405 0 0 1 -.714-4.229c-.1-5.314.045-10.632-.062-15.945-.081-3.971 1.728-6.2 5.469-7.448 9.528-3.181 19.192-5.406 29.309-5.2 2.737.055 5.476.041 8.213.016a43.473 43.473 0 0 1 27.333 9.353 23.033 23.033 0 0 1 6.326 7.207c6.392 11.516 6.2 23.11-.044 34.561-3.01 5.523-6.6 10.684-11.744 14.556-4.365 3.288-8.681 6.642-13 9.987a24.061 24.061 0 0 0 -1.87 1.966c3.008-.155 5.2-.124 7.351-.409 5.416-.718 10.808-1.615 16.22-2.363a38.158 38.158 0 0 1 5.289-.324 37.135 37.135 0 0 1 3.809.342 5.528 5.528 0 0 1 2.63 4.914c.035 5.153.042 10.307-.03 15.459a6.644 6.644 0 0 1 -2.518 5.222 24.961 24.961 0 0 1 -9.717 1.774c-19.487-.028-38.974.038-58.461-.072a60.405 60.405 0 0 1 -9.552-1.185 4.117 4.117 0 0 1 -3.708-3.911 95.831 95.831 0 0 1 .12-11.545c.18-2.354 1.934-3.986 3.852-5.314 3.177-2.2 6.294-4.489 9.509-6.631a289.5 289.5 0 0 0 26.728-20.649c4.291-3.645 7.536-7.859 8.4-13.656.915-6.135-1.283-10.031-7.287-11.72-5.2-1.463-10.562-1.085-15.812-.3a69.334 69.334 0 0 0 -18.839 5.883c-2.211 1.019-4.5 1.966-7.2-.339z" fill="#e73493"/><path d="m484.023 1017.041c-1.06 2.925-2 5.1-2.643 7.37-2.323 8.21-4.556 16.445-6.8 24.678-.635 2.33-1.1 4.71-1.813 7.013a48.6 48.6 0 0 1 -1.879 4.55c-3.393 1.39-6.467 1.044-9.491.819-2.5-.186-4.063-1.89-5.024-4.039a65.568 65.568 0 0 1 -2.793-7.2q-8.267-26.519-16.428-53.071c-.658-2.129-1.31-4.26-1.993-6.483.789-.659 1.306-1.371 1.987-1.6 2.329-.8 9.348-.7 13.985.137a25.4 25.4 0 0 1 2.132 4.261c2.05 6.782 3.907 13.622 5.9 20.422 1.489 5.087 3.072 10.147 4.849 16a19.156 19.156 0 0 0 1.455-2.793c1.3-4.487 2.493-9.005 3.8-13.491q2.972-10.206 6.065-20.377a32.152 32.152 0 0 1 1.735-3.864c4.017-1.26 7.873-.947 11.686-.56a5.029 5.029 0 0 1 4.3 3.464 75.268 75.268 0 0 1 2.609 7.767c2.253 9.226 4.345 18.492 6.536 27.733.287 1.209.8 2.364 1.363 4 1.67-1.849 1.875-3.765 2.339-5.552 1.82-7.012 3.554-14.046 5.453-21.036 1.012-3.724 2.24-7.393 3.474-11.052 1.191-3.534 3.456-5.69 7.464-5.7 1.586 0 3.161-.608 4.758-.755 2.109-.194 4.229-.188 6.024 2.326-.248 1.288-.45 3.021-.926 4.674-1.515 5.256-3.059 10.506-4.726 15.715-3 9.353-6.091 18.674-9.14 28.01-1.9 5.816-3.821 11.624-5.672 17.455-1.445 4.551-2.816 5.663-7.614 5.785a43.948 43.948 0 0 1 -4.829-.107 5.622 5.622 0 0 1 -5.377-4.71q-4.059-16.41-8.2-32.8a21.965 21.965 0 0 0 -2.566-6.989z" fill="#36256e"/><path d="m462.784 896.264c.9 1.563 1.848 3.2 2.792 4.844 5.21 9.062 10.4 18.135 15.654 27.172a28.588 28.588 0 0 0 2.685 3.288 21.084 21.084 0 0 0 1.78-2.351c2.09-3.812 4.06-7.691 6.188-11.482 3.072-5.474 6.381-10.82 9.334-16.357 2.906-5.448 7.217-6.609 14.44-6.022a16.025 16.025 0 0 1 3.011.795 5.668 5.668 0 0 1 2.236 4.859q.066 2.658.064 5.318 0 26.589-.027 53.18c-.006 2.522.457 5.226-2.227 7.746l-12.876 1.235c-2.348-1.405-2.508-3.395-2.485-5.319.118-10.142.321-20.283.483-30.424a8.84 8.84 0 0 0 -.288-1.4c-.679.541-1.356.852-1.678 1.379-1.255 2.061-2.34 4.227-3.6 6.288q-3.642 5.979-7.425 11.871a10.341 10.341 0 0 1 -2.285 2.466c-3.766 2.956-8.653 2.533-11.417-1.378-3.525-4.988-6.674-10.244-9.936-15.415-1.182-1.876-2.223-3.841-3.851-6.676-.212 2.214-.422 3.414-.427 4.615-.039 8.541-.013 17.082-.064 25.623-.011 1.906-.25 3.809-.4 5.908-5.01 2.856-9.951 1.862-15.336.972a40.459 40.459 0 0 1 -.89-5.844q-.1-29.007-.032-58.015c0-2.407-.031-4.891 2.331-6.929l6.86-1.308z" fill="#36256e"/><path d="m636.4 936.722c1.607-2.41 1.232-4.228 1.241-5.934.046-9.023 0-18.047.035-27.071.007-2.235-.22-4.533 1.307-7.02 4.076-2.637 8.587-2.785 13.237-.612a17.708 17.708 0 0 1 2.21 8.972q-.009 27.795-.025 55.592c0 2.233.173 4.571-2.087 6.467-4.559 1.559-9.383.869-13.809-1.068-2.164-.947-3.882-3.317-5.357-5.364-7.438-10.32-14.721-20.751-22.084-31.125-.918-1.293-1.988-2.477-3.526-4.377-.225 1.928-.477 3.106-.482 4.284-.045 10.313-.017 20.626-.084 30.938-.013 2.046-.336 4.09-.535 6.339-4.695 1.621-9.058 1.236-13.752.451a23.366 23.366 0 0 1 -1.23-3.659 27.014 27.014 0 0 1 -.181-4.339q-.024-28.038-.007-56.075c0-2.218.3-4.434.463-6.663 1.346-.634 2.31-1.421 3.341-1.521 6.413-.622 12.072.479 16.072 6.385 7.046 10.4 14.333 20.641 21.556 30.922.987 1.408 2.189 2.667 3.697 4.478z" fill="#36256e"/><path d="m569.316 987.593c20.735-.022 36.829 16.976 36.745 38.942-.07 18.245-14.243 35.83-36.943 36.082-24.346.27-37.519-18.481-37.838-38.248-.363-22.509 20.736-37.562 38.036-36.776zm-20.316 37.853c.023 6.61 1.541 10.921 5.46 15.515a18.69 18.69 0 0 0 24.818 3.017c4.795-3.4 7.28-8.109 8.47-13.562 2.786-12.764-3.482-23.684-16.229-26.982a9.1 9.1 0 0 0 -4.253-.233c-10.877 2.67-19.361 11.958-18.266 22.245z" fill="#36256e"/><path d="m668.558 1059.461c-.992.764-1.438 1.352-2 1.5a25.812 25.812 0 0 1 -12.389.149 7.092 7.092 0 0 1 -3.411-2.507c-1.643-1.967-3-4.174-4.5-6.259-2.634-3.651-5.163-7.389-7.975-10.9-2.6-3.241-4.2-3.723-7.827-3.2-1.371 1.238-1.123 2.927-1.143 4.5-.052 4.023.02 8.048-.05 12.071-.03 1.737-.29 3.471-.471 5.486-5.288 2.305-10.475 1.229-15.271.953-2.129-1.995-1.907-4.167-1.919-6.226-.047-7.886-.036-15.773-.038-23.659 0-11.589-.018-23.178.018-34.766.009-2.548-.212-5.217 2.477-7.6 1.385-.125 3.269-.312 5.156-.463 3.515-.282 7.032-.544 10.549-.817a5.709 5.709 0 0 1 .959-.087c6.063.566 12.2.718 18.17 1.815 11.236 2.067 16.541 12.969 17.161 21.321.588 7.922-2.4 14.086-7.94 19.336-1.389 1.317-3.049 2.421-3.395 5.085 1.034 1.361 2.2 3.064 3.532 4.617a55.846 55.846 0 0 1 8.918 14.836 41.949 41.949 0 0 1 1.389 4.815zm-38.658-39.048a17.413 17.413 0 0 0 12.962.362c5.184-1.72 7.643-9.654 2.651-13.776-3.732-3.082-8.037-3.769-12.654-3a3.623 3.623 0 0 0 -3.188 3.188 39.227 39.227 0 0 0 .229 13.226z" fill="#36256e"/><path d="m734.177 988.856c1.521-.093 3.429-.3 5.338-.31 5.794-.041 11.594-.185 17.381.028 15.613.575 27.472 7.517 34.466 21.645a34.333 34.333 0 0 1 2.759 21.688 60.44 60.44 0 0 1 -3.081 10.143c-3.206 8.565-9.456 14.008-18.012 16.9a44.691 44.691 0 0 1 -15.6 2.74c-6.112-.16-12.231-.009-18.347-.042-1.751-.009-3.5-.188-4.763-.26a5.278 5.278 0 0 1 -2.637-4.409c-.126-1.278-.172-2.57-.173-3.855q-.024-21.249 0-42.5a31.026 31.026 0 0 1 .328-5.292 28.233 28.233 0 0 0 .114-10.078c-.426-2.315-.226-4.502 2.227-6.398zm15.262 14.733a16.354 16.354 0 0 0 -.592 3.194c.041 3.207.33 6.412.353 9.619.057 7.874-.015 15.749.044 23.623.014 1.864.338 3.725.5 5.438 3.178 1.6 6.113.955 8.946 1.008 6.337.118 11.37-3.02 14.742-7.855 7.062-10.129 5.446-19.041-.973-28.12a11.109 11.109 0 0 0 -4.216-3.084 45.723 45.723 0 0 0 -16.2-4.277 11.2 11.2 0 0 0 -2.604.454z" fill="#36256e"/><path d="m386.788 1092.061c2.746 1.553 3.439 3.282 3.513 5.326q.1 2.655.1 5.313c.013 9.021.108 18.043-.023 27.062-.075 5.137-.544 10.268-.8 15.4q-.158 3.135-.16 6.277c-.013 10.793.025 21.586-.024 32.378-.01 2.05-.335 4.1-.471 5.654a7.539 7.539 0 0 1 -5.629 2.684c-7.078.379-14.142.382-20.852-1.411-1.88-1.508-2.2-3.426-2.227-5.381-.049-3.38-.346-6.817.132-10.133.9-6.265.7-12.532.74-18.806.033-4.993.108-9.99-.023-14.98-.127-4.819-.546-9.63-.738-14.449-.147-3.7-.174-7.4-.195-11.108-.028-5.155-.062-10.31.033-15.463.037-2.044.412-4.082.577-5.609a8.61 8.61 0 0 1 6.212-2.725c6.747-.09 13.506-.029 19.835-.029z" fill="#e73493"/><path d="m95.435 1190.2c-1.529-2.443-1.243-4.909-1.247-7.3-.027-15.788.1-31.576-.056-47.362-.109-10.777-.614-21.551-.915-32.326a41.373 41.373 0 0 1 .107-4.829c.428-4.762 1.967-6.3 6.678-6.376 5.958-.1 11.919-.063 17.878 0a39.276 39.276 0 0 1 4.59.607 33.239 33.239 0 0 1 .9 5.279c.084 13.21.777 26.467-.109 39.617-1.031 15.306-.347 30.582-.77 45.863-.061 2.215-.286 4.425-.392 6.006a6.983 6.983 0 0 1 -6.109 2.834q-7.007.053-14.013.024a10.9 10.9 0 0 1 -6.542-2.037z" fill="#e73493"/><g fill="#36256e"><path d="m114.014 1033.189c.93 1.409 1.628 2.447 2.305 3.5 2.792 4.331 5.682 8.6 8.317 13.027a41.266 41.266 0 0 1 2.87 6.636 3.867 3.867 0 0 1 -1.2 4.847c-4.119.731-8.741.521-13.74.171-.978-1.319-2.029-2.7-3.038-4.105-4.03-5.625-7.947-11.336-12.111-16.861-2.282-3.028-3.523-3.157-8.04-1.805a45.591 45.591 0 0 0 -.632 4.888c-.114 3.866-.01 7.738-.1 11.605-.067 2.773-.145 2.771-2.411 5.8a23.206 23.206 0 0 1 -10.836.336 4.543 4.543 0 0 1 -2.321-3.9c-.112-1.283-.147-2.575-.148-3.863q-.015-28.533 0-57.065c0-2.23-.251-4.542 1.615-7.039a27.448 27.448 0 0 1 4.619-.757c7.9-.092 15.8-.22 23.691.006 7.276.208 13.256 3.639 18.384 8.593a13.205 13.205 0 0 1 3.842 8.686 64.753 64.753 0 0 1 -.055 12.042 17.288 17.288 0 0 1 -7.64 12.382c-1.132.792-2.121 1.795-3.371 2.876zm-24.759-13.074c3.057.813 12.156.845 14.18.161 4.643-1.567 6.642-8.123 3.663-12.016-2.935-3.835-10.616-6.493-15.252-5.174a12.526 12.526 0 0 0 -2.64 1.6 48.053 48.053 0 0 0 .049 15.429z"/><path d="m265.089 1021.761c3.2 3.864 6.545 7.538 9.468 11.52a107.934 107.934 0 0 1 8.118 12.573c2.337 4.34 4.678 8.777 5.616 13.283a3.353 3.353 0 0 1 -3.343 2.365c-4.172.053-8.345.02-12.781.02-1.029-1.539-2.048-2.942-2.942-4.421-3.751-6.2-7.417-12.448-11.222-18.612a41.881 41.881 0 0 0 -3.484-4.327c-4.566 1.772-6.934 4.743-7.132 9.074-.184 4.022-.08 8.057-.124 12.087-.023 2.122-.089 4.244-2.58 5.772a33.922 33.922 0 0 1 -12.254.1 21.187 21.187 0 0 1 -1.647-3.456 23.068 23.068 0 0 1 -1.045-5.691c-.108-8.529-.72-17.07.455-25.585a51.665 51.665 0 0 0 .329-6.751c.044-7.9.006-15.8.055-23.695.016-2.4-.072-4.9 2.392-6.89a28.462 28.462 0 0 1 11.338-.188c2.581 1.68 2.948 4.031 2.961 6.52.026 5.158.012 10.317.065 15.474.014 1.373.21 2.744.4 5.076 3.6-4.268 6.619-7.763 9.536-11.343 2.442-3 4.69-6.154 7.157-9.129a57.389 57.389 0 0 1 5.308-5.6 7.326 7.326 0 0 1 6.2-2.065 26.642 26.642 0 0 0 4.311-.226c2.389-.077 4.822-.506 6.958.573 1.853 1.9 1.277 3.8.112 5.417-2.822 3.91-5.729 7.768-8.789 11.493-3.986 4.852-8.168 9.542-12.225 14.336a12.827 12.827 0 0 0 -1.211 2.296z"/><path d="m345.965 1048.111c2.753 4.144 2.061 8.253.859 12.827a42.807 42.807 0 0 1 -5.321.69q-20.527.078-41.056 0c-1.576 0-3.151-.284-4.615-.426a15.911 15.911 0 0 1 -1.989-10.074 102.965 102.965 0 0 0 .072-21.688 21.57 21.57 0 0 1 -.152-2.406q.291-15.446.623-30.89c.049-2.227-.286-4.541 1.5-7.006a23.506 23.506 0 0 1 3.758-.552q20.291-.072 40.582-.009a31.59 31.59 0 0 1 4 .478c2.013 3.768 2.208 6.763.9 12.1-2.775 1.972-6.07 2.492-9.477 2.512-6.119.034-12.239-.029-18.358.022-1.72.014-3.438.282-5.178.435-1.658 4.3-1.179 8.18-.529 11.671 1.916 2.036 3.94 1.7 5.834 1.713 6.119.049 12.239-.013 18.358.06 1.887.022 3.77.338 5.538.508 2.807 4.775 2.311 9.183.332 14.035-1.735.166-3.456.451-5.182.474-5.152.068-10.306.054-15.459.031a19.8 19.8 0 0 0 -8.7 1.7 30.022 30.022 0 0 0 .57 11.558c5.381 1.426 10.88.175 16.252.792 5.415.622 10.862.946 16.838 1.445z"/><path d="m581.788 953.254a26.113 26.113 0 0 1 .277 13.736 25.078 25.078 0 0 1 -4.271.768q-21.5.063-43.009-.022a20.081 20.081 0 0 1 -2.814-.394c-2.058-2.1-2.362-4.53-2.157-7.209.271-3.527.487-7.068.5-10.6.047-15.144 0-30.288.021-45.432 0-2.382-.338-4.863 1.354-7.247a6.349 6.349 0 0 1 1.933-.861c4.629-.506 9.263-1.171 13.907-1.285 8.21-.2 16.429-.037 24.645-.051a15.372 15.372 0 0 1 8.295 1.957 12.617 12.617 0 0 1 -.315 12.656c-2.013.186-3.9.5-5.8.511-7.088.055-14.176-.013-21.263.027-1.9.011-3.8.24-6 .389a23.05 23.05 0 0 0 0 13.941c2.348.21 4.234.506 6.123.525 6.282.063 12.565-.01 18.847.05 1.886.017 3.77.3 5.994.486.721 4.837 2.464 9.28-.551 14.122-1.777.174-3.655.5-5.536.517-6.282.054-12.564-.037-18.846.005-1.894.012-3.786.274-5.82.433-1.861 3.953-1.475 7.641-.443 11.832a51.121 51.121 0 0 0 5.2.563c7.893.063 15.786 0 23.679.062 1.89.01 3.777.315 6.05.521z"/><path d="m935.544 989.56c4.8-1.59 8.9-1.047 12.963-.675a19.264 19.264 0 0 1 2.722 10.412c.163 10.466.3 20.944-.044 31.4a45.32 45.32 0 0 1 -3.067 16.049c-3.661 8.775-10.182 13.838-19.7 14.9a31.056 31.056 0 0 0 -3.356.373c-6.045 1.36-11.864.016-17.552-1.712-7.749-2.355-12.279-8.173-14.607-15.562a48.206 48.206 0 0 1 -2.133-21.433 42.7 42.7 0 0 0 .288-5.783c.037-7.247.007-14.5.042-21.743.01-2.075-.156-4.216 1.62-6.481 3.948-1.419 8.366-.779 12.316-.475 2.668 1.792 2.7 4.093 2.7 6.361.034 7.892.028 15.784.041 23.676.006 4.187.041 8.375.023 12.562-.017 4.015 1.46 7.552 3.44 10.921a7.983 7.983 0 0 0 6.681 4.153c.8.053 1.6.162 2.408.2 7.007.324 10.943-2.633 12.344-9.5a46.738 46.738 0 0 0 .881-7.655c.408-11.575.68-23.155 1.085-34.73a39.193 39.193 0 0 1 .905-5.258z"/><path d="m721.876 947.867c.032-2.232-1.581-3.359-3.156-4.489a32.454 32.454 0 0 0 -10.564-4.606 51.079 51.079 0 0 1 -13.9-6.594c-11.72-7.478-9.964-26.692-.434-32.4 4.994-2.99 9.829-5.15 15.742-5.122a69.153 69.153 0 0 1 16.23 2.041 21.478 21.478 0 0 1 8.14 4.083c1.415 1.1 2.708 2.313 2.9 4.541-.5 2.682-2.14 5.108-3.772 7.464-1.814 2.617-4.169 3.211-7.236 2.056a19.57 19.57 0 0 1 -4.267-2.224 21.46 21.46 0 0 0 -9.478-3.318c-4.48-.65-7.31 1.368-8.8 6.167.371 2.426 2.344 3.358 4.244 4.184 4.428 1.924 8.952 3.628 13.378 5.556a81.105 81.105 0 0 1 8.652 4.239c12.294 7.2 12.65 23.562 3.565 32.388a25.182 25.182 0 0 1 -16.435 7.064c-9.952.728-19.135-1.626-28.156-5.3a30.7 30.7 0 0 1 -2.747-1.475c-.808-5.8 2.892-9.9 4.867-14.249 2.524-1.132 4.223 0 5.969.745 3.108 1.322 6.154 2.8 9.313 3.988a17.36 17.36 0 0 0 5.167 1.011c5.317.26 7.424-.934 10.778-5.75z"/><path d="m978.162 1038.113c-1.666 7.6.38 14.835-1.85 22.136-5.2 2.428-10.635 1.509-16.449.73a34.7 34.7 0 0 1 -1.02-4.844 63.937 63.937 0 0 1 .05-6.753c.248-6.1.717-12.192.787-18.291.13-11.428.014-22.859.067-34.288.01-2.214.322-4.427.441-5.946a5.3 5.3 0 0 1 4.852-2.28c8.369-.015 16.764-.4 25.1.128 9.148.58 19.8 6.755 22.387 18.3a25.312 25.312 0 0 1 -2.846 19.111c-4.522 7.527-11.662 10.744-20.16 11.335-2.084.144-4.186 0-6.275.1-1.559.076-3.11.336-5.084.562zm-.508-34.8c.26 6.649-1.694 12.785 1.6 18.719 1.78.13 3.2.3 4.631.321a28.966 28.966 0 0 0 4.321-.155c3.955-.522 6.077-2.383 6.87-6.315.639-3.17 1.129-6.6-1.7-8.993-4.257-3.606-9.325-4.409-15.722-3.578z"/><path d="m877.935 1041.2c3.46 2.855 4.73 7.176 6.652 11.589-1.071 1.13-1.858 2.423-3.008 3.1-5.746 3.361-11.684 6.136-18.638 5.768-3.857-.2-7.733-.117-11.6-.051-10.923.186-19.143-4.789-25.419-13.356-3.293-4.5-4.989-9.677-6.15-15.1-2.58-12.053.59-22.63 8.049-32.1a26.917 26.917 0 0 1 5.258-4.928 42.547 42.547 0 0 1 21.834-8.4c9.519-.759 18.048 2.55 25.586 8.372a9.334 9.334 0 0 1 3.627 6.035c-1.29 4.232-5.031 6.787-8.368 10.059-1.337-.764-2.44-1.343-3.491-2.006-2.583-1.63-5.115-3.343-7.716-4.942-5.01-3.079-10.181-2.664-15.218-.235-7.768 3.748-12.184 9.8-12.112 18.7.016 1.933-.044 3.869.025 5.8.305 8.614 8.115 16.473 16.783 17.021 6.061.383 11.874-.008 17.105-3.683a9.708 9.708 0 0 1 6.801-1.643z"/><path d="m54.062 1011.382a36.044 36.044 0 0 0 -4.14-3.137c-2.949-1.614-5.976-3.1-9.049-4.466a6.554 6.554 0 0 0 -3.307-.412c-13.093 1.6-22.695 11.735-20.023 25.919 1.207 6.407 5.112 10.588 9.386 14.738a9.087 9.087 0 0 0 3.434 1.672 24.37 24.37 0 0 0 19.19-1.362c.867-.426 1.71-.9 2.554-1.372 2.584-1.438 5.276-1.822 7.74 0 2.846 2.1 4.625 4.947 4.384 8.664-.147 2.26-1.537 3.789-3.285 5.1-4.565 3.426-9.767 4.755-15.375 4.908-3.2.088-6.395.291-9.572.679a49.107 49.107 0 0 0 -6.212-.647 21.64 21.64 0 0 1 -13.471-4.65c-8.434-6.264-14.155-14.222-15.759-25.016-1.7-11.474.4-21.741 7.7-30.85a32.115 32.115 0 0 1 9.595-7.982 42.286 42.286 0 0 1 16.915-5.429c9.892-.824 18.751 2.164 26.563 8.226a8.16 8.16 0 0 1 3.309 6.687 14.165 14.165 0 0 1 -10.577 8.73z"/><path d="m215.854 1040.87c4.72 2.8 6.374 6.94 7.073 12.075-3.224 3.418-6.956 6.392-11.518 7.395-8.8 1.935-17.743 3.42-26.741 1.023-12.863-3.426-21.37-11.489-25.114-24.3a40.9 40.9 0 0 1 -.565-21.5c2.667-10.815 9.277-18.562 19.195-23.485 5.373-2.667 10.948-4.794 17.1-4.51a40.431 40.431 0 0 1 22.944 7.842c6.482 4.862 6.167 9.86-.722 13.979a40.15 40.15 0 0 1 -3.743 1.731c-1.374-.66-2.833-1.283-4.216-2.046a32.145 32.145 0 0 1 -3.662-2.341c-11.356-8.452-26.5.613-29.442 10.579-1.872 6.341-2.337 12.225.7 18.243 3.177 6.3 11.415 12.615 20.635 11.339 4.216-.583 8.169-1.392 11.863-3.626 1.864-1.132 4.126-1.619 6.213-2.398z"/><path d="m364.842 896.188c-.234 5.8-1.059 10.508-4.909 13.674-4.724 0-8.9.125-13.067-.026-8.76-.318-14.643 4.256-18.9 11.245-3.614 5.925-4.722 12.731-4.8 19.492-.1 8.442 9.087 15.4 17.487 13.7 2.829-.573 5.564-1.6 8.36-2.353 1.068-.287 2.187-.384 3.384-.585l1.654 2.326c-.178 1.758-.373 3.353-.494 4.954a9.547 9.547 0 0 1 -6.517 8.764c-4.543 1.746-9.312 2.923-14.156 2.26a64.357 64.357 0 0 1 -14.079-3.174c-7.557-2.872-12.249-8.452-13.671-16.718-2.194-12.759 1.091-24.283 7.56-35.074 5.161-8.61 12.929-14.314 22.159-17.83 3.536-1.347 7.528-1.705 11.352-2.029a90.661 90.661 0 0 1 12.068-.043c2.008.096 3.992.837 6.569 1.417z"/><path d="m409.474 952.115c1.612 4.664 1.719 8.785-.612 13.133a26.817 26.817 0 0 1 -12.7 3.457c-2.731.137-5.482-.1-8.21.059-6.417.378-12.058-1.839-17.275-5.206a17.4 17.4 0 0 1 -7.734-11.223 43.621 43.621 0 0 1 -.118-19.123 55.883 55.883 0 0 1 12.906-26.1 14.522 14.522 0 0 1 1.715-1.695c8.291-6.623 17.586-10.634 28.341-10.715 3.216-.024 6.444.013 9.646.272a33.306 33.306 0 0 1 5.211 1.26c3.023 4.539.31 8.337-1.061 12.4l-3.859 2.04-.111-.563c-5.135-.048-10.282-.338-15.4-.078-5.551.282-9.7 3.616-12.735 7.877a35.344 35.344 0 0 0 -6.5 25.145 11.525 11.525 0 0 0 7.65 9.778c3.621 1.439 7.373 2.3 11.292.92a28.97 28.97 0 0 1 4.66-1.247c1.513-.261 3.076-.257 4.894-.391z"/><path d="m354.058 1003.4c-2.336-4.894-2.035-9.342-.83-13.612 2.207-1.63 4.365-1.22 6.411-1.229 10.942-.047 21.884-.03 32.826-.035 3.369 0 6.739-.042 10.108.019a15.432 15.432 0 0 1 2.675.492c1.87 3.469 2.082 6.224 1.03 12.25-1.124 1.926-2.991 2.285-4.985 2.32-2.573.046-5.149.011-7.722.08-1.583.042-3.163.212-4.321.295-2.144 1.823-1.75 3.867-1.76 5.745-.043 7.885-.007 15.771-.01 23.657 0 7.081.021 14.162-.058 21.243-.02 1.878-.372 3.752-.586 5.751-4.827 1.991-9.383 1.221-13.442.877a6.017 6.017 0 0 1 -2.541-5.546c.121-10.931.359-21.861.479-32.792.031-2.883-.214-5.77-.333-8.654-.093-2.251-.169-4.5-.287-6.753-.076-1.443-.1-2.923-1.6-4.108z"/><path d="m692.359 1046.5c6.054 0 11.5-.065 16.937.018 5.28.082 10.591-.417 16.039.471 2.46 4 1.472 8.079 1.1 12.091a17.178 17.178 0 0 1 -9.446 2.471c-12.074.174-24.152.1-36.228.034a27.175 27.175 0 0 1 -4.476-.815 43.069 43.069 0 0 1 -.844-5.86c-.063-15.3-.122-30.6.018-45.9.048-5.3.6-10.593 1.033-15.879.339-4.1 2.254-5.693 6.338-5.525a8.757 8.757 0 0 1 1.439.15c1.886.395 3.766.819 5.444 1.188 2.013 1.354 2.338 3.237 2.376 5.219.045 2.415.05 4.831.051 7.246q.009 19.326.015 38.651c.006 1.916.119 3.83.204 6.44z"/></g><path d="m259.987 348.678a50.2 50.2 0 0 1 -.823 6.667c-2.066 8.045-9.982 14.347-18.345 14.706-4.824.207-9.685.5-13.983-2.447-6.665-4.568-11.588-10.229-11.729-18.828-.141-8.645 5.592-17.14 13.508-20.577 12.468-5.415 23.235.085 29.341 10.157 1.944 3.204 1.916 6.744 2.031 10.322z" fill="#e73493"/><path d="m775.933 370.107c-14.215.008-22.285-10.114-21.95-22.919.347-13.236 9.1-20.675 23-20.958 13.185-.269 21.288 10.983 21.611 22.041.306 10.485-9.804 23.264-22.661 21.836z" fill="#e73493"/><path d="m176.393 459.035c-.794-10 8.483-20.483 20.637-20.436 12 .046 19.957 8.806 20.017 20.971.055 11.252-7.6 19.893-20.292 19.778-10.174-.092-21.114-7.401-20.362-20.313z" fill="#e73493"/><path d="m797.3 458.825c-.073-15.323 12.246-22.786 25.517-19.109 13.783 3.821 21.163 20.884 9.683 33.484-5.179 5.68-11.9 7.307-19.392 5.368-.777-.2-1.52-.532-2.294-.743-9.584-2.625-13.274-11.225-13.514-19z" fill="#e73493"/><path d="m301.677 894.841 2.454 3.365c-1.122 6.164-2.232 12.487-3.43 18.792-2.012 10.585-4 21.177-6.16 31.731-1.1 5.354-2.489 10.652-3.913 15.93a17.856 17.856 0 0 1 -2.111 3.771c-4.769.121-9.411 1.8-13.8-1.937.208-2.21.237-4.452.653-6.621q4.63-24.178 9.43-48.328c.977-4.873 2.319-9.674 3.413-14.178 4.187-3.936 8.787-2.439 13.464-2.525z" fill="#36256e"/><path d="m136.567 989.158c4.662-.713 9.463-1.673 14.369 1.024.2 1.882.531 3.611.534 5.341q.056 29.661-.006 59.322a42.594 42.594 0 0 1 -.629 5.305 21.18 21.18 0 0 1 -14.487.453c-1.633-1.642-1.493-3.794-1.511-5.864-.047-5.144-.025-10.289-.024-15.433q0-21.222.021-42.442c.006-2.379-.32-4.852 1.733-7.706z" fill="#36256e"/><path d="m216.407 567.5c-.861 6.951-3.461 12.425-9.424 15.828-5.6 3.2-11.422 4.416-17.4 1.107a24.948 24.948 0 0 1 -10.048-10.135 14.6 14.6 0 0 1 -.044-14.312c4.17-8.286 11.86-12.708 20.972-11.348 7.368 1.1 11.954 5.918 14.605 12.605a35.514 35.514 0 0 1 1.339 6.255z" fill="#e73493"/><path d="m798.238 567.214c-.55-11.821 9.719-18.828 18.469-18.712 12.408.165 19.459 9.5 19.29 19.256-.171 9.927-8.258 18.493-18.185 18.512-9.366.018-20.155-7.077-19.574-19.056z" fill="#e73493"/><path d="m783.824 644.2c8.984.062 16.246 5.5 18.07 13.094a15.428 15.428 0 0 1 -.484 8.565c-2.5 7.66-12.464 15.976-23.788 11.287-5.08-2.1-8-6.421-9.653-11.487-2.518-7.737.559-15.4 7.537-19.52a14.232 14.232 0 0 1 8.318-1.939z" fill="#e73493"/><path d="m230 643.961c10.126-.026 17.184 7.1 17.239 17.416.047 8.763-8.367 17.075-17.112 16.907-10.264-.2-17.966-7.641-17.648-17.761.321-10.298 7.121-16.475 17.521-16.562z" fill="#e73493"/><path d="m730.049 750.18c-8.74.808-16.617-8.387-16.683-16.621-.076-9.626 9.068-15.958 16.134-15.968 7.561-.012 16.856 8.139 16.8 16.243s-7.764 17.084-16.251 16.346z" fill="#e73493"/><path d="m284.19 750.215c-9.239.036-15.952-7.092-15.891-16.873.054-8.676 7.586-15.676 16.809-15.623 9 .052 15.279 7.231 15.289 17.485.003 8.185-7.325 14.976-16.207 15.011z" fill="#e73493"/><path d="m665.724 896.509c6.423-3.049 11.765-2.558 15.341 1.411a28.477 28.477 0 0 1 -.3 3.124c-1.027 5.192-1.981 10.4-3.206 15.549-1.613 6.781-6.19 9.069-13.627 6.63a14.406 14.406 0 0 1 -.986-3.747 106.33 106.33 0 0 1 1.97-21.018 11.3 11.3 0 0 1 .808-1.949z" fill="#36256e"/><path d="m506.511 384.525s-10.8 29.694-19.191 41.542c5.311 9.491 16.482 18.062 19.191 53.282 2.483-35.333 14.733-44.333 19.416-53.282-9.333-13.103-19.416-41.542-19.416-41.542z" fill="#e73493"/></svg>